<?xml version="1.0" encoding="UTF-8" standalone="no"?>
<svg
   xmlns:dc="http://purl.org/dc/elements/1.1/"
   xmlns:cc="http://creativecommons.org/ns#"
   xmlns:rdf="http://www.w3.org/1999/02/22-rdf-syntax-ns#"
   xmlns:svg="http://www.w3.org/2000/svg"
   xmlns="http://www.w3.org/2000/svg"
   viewBox="0 0 338.63599 151.17999"
   height="151.17999"
   width="338.63599"
   xml:space="preserve"
   version="1.1"
   id="svg2"><metadata
     id="metadata8"><rdf:RDF><cc:Work
         rdf:about=""><dc:format>image/svg+xml</dc:format><dc:type
           rdf:resource="http://purl.org/dc/dcmitype/StillImage" /></cc:Work></rdf:RDF></metadata><defs
     id="defs6"><clipPath
       id="clipPath16"
       clipPathUnits="userSpaceOnUse"><path
         id="path18"
         d="m 0,113.385 253.977,0 L 253.977,0 0,0 0,113.385 Z" /></clipPath></defs><g
     transform="matrix(1.3333333,0,0,-1.3333333,0,151.18)"
     id="g10"><g
       id="g12"><g
         clip-path="url(#clipPath16)"
         id="g14"><g
           transform="translate(1.3535,7.1094)"
           id="g20"><path
             id="path22"
             style="fill:#ff1e00;fill-opacity:1;fill-rule:nonzero;stroke:none"
             d="m 0,0 c 0,2.313 0,2.727 -0.03,3.201 -0.031,0.504 -0.149,0.74 -0.636,0.844 -0.12,0.031 -0.372,0.045 -0.505,0.045 -0.06,0 -0.118,0.029 -0.118,0.09 0,0.088 0.074,0.117 0.236,0.117 0.668,0 1.541,-0.045 1.632,-0.045 0.131,0 0.991,0.045 1.435,0.045 C 2.178,4.297 2.25,4.268 2.25,4.18 2.25,4.119 2.191,4.09 2.132,4.09 2.03,4.09 1.939,4.076 1.763,4.045 1.362,3.971 1.244,3.721 1.215,3.201 1.186,2.727 1.186,2.313 1.186,0 l 0,-0.889 0.058,0 c 0.252,0.282 2.934,3.008 3.466,3.586 0.414,0.43 0.801,0.815 0.801,1.067 0,0.177 -0.074,0.267 -0.194,0.312 -0.073,0.029 -0.131,0.059 -0.131,0.117 0,0.075 0.072,0.104 0.177,0.104 0.296,0 0.754,-0.045 1.112,-0.045 0.072,0 1.049,0.045 1.421,0.045 0.163,0 0.222,-0.029 0.222,-0.104 C 8.118,4.119 8.089,4.09 7.971,4.09 7.747,4.09 7.437,4.016 7.141,3.883 6.532,3.615 6.207,3.246 5.541,2.607 5.17,2.252 2.592,-0.266 2.28,-0.637 2.666,-1.066 5.748,-4.25 6.354,-4.814 7.6,-5.971 7.852,-6.205 8.563,-6.504 8.947,-6.666 9.377,-6.695 9.48,-6.695 c 0.104,0 0.193,-0.03 0.193,-0.088 0,-0.076 -0.073,-0.119 -0.325,-0.119 l -0.756,0 c -0.414,0 -0.696,0 -1.022,0.029 -0.787,0.074 -1.156,0.4 -1.792,0.902 -0.668,0.549 -3.809,3.942 -4.519,4.817 l -0.073,0 0,-1.453 c 0,-1.422 0,-2.592 0.073,-3.215 0.044,-0.428 0.133,-0.754 0.578,-0.813 0.207,-0.031 0.443,-0.06 0.578,-0.06 0.088,0 0.118,-0.045 0.118,-0.088 0,-0.076 -0.074,-0.119 -0.236,-0.119 -0.727,0 -1.587,0.043 -1.704,0.043 -0.119,0 -0.978,-0.043 -1.423,-0.043 -0.164,0 -0.238,0.029 -0.238,0.119 0,0.043 0.03,0.088 0.121,0.088 0.132,0 0.308,0.029 0.443,0.06 0.295,0.059 0.37,0.385 0.43,0.813 C 0,-5.199 0,-4.029 0,-2.607 L 0,0 Z" /></g><g
           transform="translate(23.5977,7.1094)"
           id="g24"><path
             id="path26"
             style="fill:#ff1e00;fill-opacity:1;fill-rule:nonzero;stroke:none"
             d="m 0,0 c 0,2.313 0,2.727 -0.03,3.201 -0.03,0.504 -0.147,0.74 -0.637,0.844 -0.118,0.031 -0.37,0.045 -0.504,0.045 -0.059,0 -0.119,0.029 -0.119,0.09 0,0.088 0.074,0.117 0.237,0.117 0.667,0 1.573,-0.045 1.704,-0.045 0.134,0 1.023,0.045 1.467,0.045 0.165,0 0.237,-0.029 0.237,-0.117 C 2.355,4.119 2.296,4.09 2.236,4.09 2.134,4.09 2.046,4.076 1.866,4.045 1.468,3.986 1.349,3.721 1.319,3.201 1.289,2.727 1.289,2.313 1.289,0 l 0,-2.074 c 0,-2.133 0.474,-3.051 1.112,-3.658 0.725,-0.682 1.391,-0.815 2.237,-0.815 0.903,0 1.792,0.428 2.324,1.067 0.683,0.843 0.862,2.103 0.862,3.628 l 0,1.852 c 0,2.313 0,2.727 -0.031,3.201 C 7.764,3.705 7.645,3.941 7.154,4.045 7.037,4.076 6.785,4.09 6.652,4.09 c -0.059,0 -0.12,0.029 -0.12,0.09 0,0.088 0.074,0.117 0.239,0.117 0.666,0 1.48,-0.045 1.571,-0.045 0.102,0 0.798,0.045 1.244,0.045 0.162,0 0.237,-0.029 0.237,-0.117 C 9.823,4.119 9.762,4.09 9.705,4.09 9.6,4.09 9.513,4.076 9.334,4.045 8.934,3.957 8.815,3.721 8.784,3.201 8.755,2.727 8.755,2.313 8.755,0 l 0,-1.586 c 0,-1.598 -0.177,-3.377 -1.362,-4.428 -1.067,-0.947 -2.177,-1.095 -3.052,-1.095 -0.505,0 -2.001,0.058 -3.052,1.05 C 0.563,-5.361 0,-4.324 0,-2.162 L 0,0 Z" /></g><g
           transform="translate(51.5713,5.1094)"
           id="g28"><path
             id="path30"
             style="fill:#ff1e00;fill-opacity:1;fill-rule:nonzero;stroke:none"
             d="m 0,0 c 0.074,0 0.074,0.045 0.06,0.104 l -1.407,4 c -0.075,0.222 -0.149,0.222 -0.224,0 l -1.302,-4 C -2.903,0.029 -2.873,0 -2.829,0 L 0,0 Z m -1.54,5.928 c 0.176,0.486 0.236,0.576 0.324,0.576 0.09,0 0.15,-0.072 0.328,-0.533 0.221,-0.563 2.547,-6.682 3.451,-8.934 0.534,-1.318 0.964,-1.555 1.276,-1.644 0.221,-0.075 0.443,-0.09 0.593,-0.09 0.088,0 0.147,-0.014 0.147,-0.086 0,-0.092 -0.134,-0.119 -0.297,-0.119 -0.222,0 -1.303,0 -2.328,0.027 -0.28,0.016 -0.443,0.016 -0.443,0.105 0,0.059 0.045,0.088 0.105,0.104 0.088,0.031 0.176,0.162 0.088,0.4 l -1.376,3.645 c -0.032,0.059 -0.061,0.088 -0.136,0.088 l -3.183,0 c -0.074,0 -0.119,-0.045 -0.149,-0.117 L -4.029,-3.273 C -4.163,-3.645 -4.236,-4 -4.236,-4.266 c 0,-0.296 0.311,-0.431 0.562,-0.431 l 0.149,0 c 0.104,0 0.148,-0.028 0.148,-0.086 0,-0.092 -0.089,-0.119 -0.223,-0.119 -0.356,0 -0.992,0.043 -1.155,0.043 -0.164,0 -0.977,-0.043 -1.674,-0.043 -0.192,0 -0.28,0.027 -0.28,0.119 0,0.058 0.058,0.086 0.132,0.086 0.104,0 0.31,0.015 0.429,0.031 0.68,0.09 0.978,0.652 1.245,1.393 l 3.363,9.201 z" /></g><g
           transform="translate(70.9229,4.4726)"
           id="g32"><path
             id="path34"
             style="fill:#ff1e00;fill-opacity:1;fill-rule:nonzero;stroke:none"
             d="m 0,0 c 0,-2.176 0.06,-3.125 0.326,-3.393 0.236,-0.236 0.622,-0.339 1.779,-0.339 0.785,0 1.435,0.013 1.791,0.443 0.192,0.238 0.341,0.607 0.384,0.891 0.018,0.117 0.047,0.191 0.136,0.191 0.073,0 0.089,-0.059 0.089,-0.223 0,-0.162 -0.106,-1.05 -0.225,-1.48 -0.101,-0.342 -0.145,-0.401 -0.932,-0.401 -1.067,0 -1.838,0.03 -2.458,0.045 -0.622,0.028 -1.082,0.043 -1.512,0.043 -0.06,0 -0.312,-0.015 -0.608,-0.015 -0.295,-0.014 -0.624,-0.028 -0.843,-0.028 -0.165,0 -0.238,0.028 -0.238,0.118 0,0.044 0.028,0.087 0.12,0.087 0.132,0 0.311,0.032 0.443,0.061 0.297,0.061 0.369,0.385 0.429,0.814 0.075,0.623 0.075,1.793 0.075,3.215 l 0,2.61 c 0,2.31 0,2.724 -0.03,3.197 -0.031,0.506 -0.149,0.742 -0.636,0.846 -0.118,0.029 -0.373,0.045 -0.505,0.045 -0.061,0 -0.117,0.029 -0.117,0.087 0,0.09 0.072,0.12 0.235,0.12 0.667,0 1.601,-0.045 1.675,-0.045 0.074,0 1.154,0.045 1.601,0.045 0.162,0 0.237,-0.03 0.237,-0.12 C 1.216,6.756 1.155,6.727 1.098,6.727 0.992,6.727 0.786,6.711 0.607,6.682 0.177,6.607 0.06,6.355 0.03,5.836 0,5.363 0,4.949 0,2.639 L 0,0 Z" /></g><g
           transform="translate(94.2344,5.1094)"
           id="g36"><path
             id="path38"
             style="fill:#ff1e00;fill-opacity:1;fill-rule:nonzero;stroke:none"
             d="m 0,0 c 0.073,0 0.073,0.045 0.058,0.104 l -1.406,4 c -0.076,0.222 -0.149,0.222 -0.223,0 l -1.303,-4 C -2.905,0.029 -2.874,0 -2.83,0 L 0,0 Z m -1.54,5.928 c 0.179,0.486 0.235,0.576 0.324,0.576 0.09,0 0.148,-0.072 0.326,-0.533 0.223,-0.563 2.549,-6.682 3.451,-8.934 0.535,-1.318 0.964,-1.555 1.277,-1.644 0.22,-0.075 0.443,-0.09 0.591,-0.09 0.089,0 0.149,-0.014 0.149,-0.086 0,-0.092 -0.135,-0.119 -0.297,-0.119 -0.223,0 -1.304,0 -2.324,0.027 -0.284,0.016 -0.446,0.016 -0.446,0.105 0,0.059 0.044,0.088 0.104,0.104 0.088,0.031 0.177,0.162 0.088,0.4 l -1.378,3.645 c -0.029,0.059 -0.058,0.088 -0.134,0.088 l -3.184,0 c -0.073,0 -0.118,-0.045 -0.149,-0.117 L -4.031,-3.273 C -4.163,-3.645 -4.238,-4 -4.238,-4.266 c 0,-0.296 0.311,-0.431 0.562,-0.431 l 0.149,0 c 0.104,0 0.149,-0.028 0.149,-0.086 0,-0.092 -0.089,-0.119 -0.224,-0.119 -0.355,0 -0.992,0.043 -1.155,0.043 -0.161,0 -0.975,-0.043 -1.673,-0.043 -0.193,0 -0.281,0.027 -0.281,0.119 0,0.058 0.058,0.086 0.133,0.086 0.103,0 0.31,0.015 0.43,0.031 0.683,0.09 0.977,0.652 1.244,1.393 l 3.364,9.201 z" /></g><g
           transform="translate(130.6992,4.4726)"
           id="g40"><path
             id="path42"
             style="fill:#ff1e00;fill-opacity:1;fill-rule:nonzero;stroke:none"
             d="m 0,0 c 0,-2.176 0.061,-3.125 0.326,-3.393 0.236,-0.236 0.622,-0.339 1.778,-0.339 0.786,0 1.438,0.013 1.793,0.443 0.193,0.238 0.341,0.607 0.385,0.891 0.015,0.117 0.044,0.191 0.133,0.191 0.074,0 0.088,-0.059 0.088,-0.223 0,-0.162 -0.102,-1.05 -0.221,-1.48 -0.103,-0.342 -0.148,-0.401 -0.933,-0.401 -1.068,0 -1.836,0.03 -2.459,0.045 -0.622,0.028 -1.082,0.043 -1.512,0.043 -0.059,0 -0.312,-0.015 -0.608,-0.015 -0.294,-0.014 -0.621,-0.028 -0.843,-0.028 -0.162,0 -0.237,0.028 -0.237,0.118 0,0.044 0.031,0.087 0.119,0.087 0.132,0 0.311,0.032 0.443,0.061 0.297,0.061 0.371,0.385 0.43,0.814 0.073,0.623 0.073,1.793 0.073,3.215 l 0,2.61 c 0,2.31 0,2.724 -0.029,3.197 -0.028,0.506 -0.148,0.742 -0.636,0.846 -0.119,0.029 -0.369,0.045 -0.504,0.045 -0.059,0 -0.119,0.029 -0.119,0.087 0,0.09 0.074,0.12 0.237,0.12 0.666,0 1.599,-0.045 1.674,-0.045 0.074,0 1.156,0.045 1.6,0.045 0.163,0 0.238,-0.03 0.238,-0.12 C 1.216,6.756 1.156,6.727 1.097,6.727 0.992,6.727 0.785,6.711 0.608,6.682 0.179,6.607 0.061,6.355 0.03,5.836 0,5.363 0,4.949 0,2.639 L 0,0 Z" /></g><g
           transform="translate(149.5176,7.1094)"
           id="g44"><path
             id="path46"
             style="fill:#ff1e00;fill-opacity:1;fill-rule:nonzero;stroke:none"
             d="m 0,0 c 0,2.313 0,2.727 -0.029,3.201 -0.032,0.504 -0.15,0.74 -0.638,0.844 -0.118,0.031 -0.371,0.045 -0.504,0.045 -0.059,0 -0.118,0.029 -0.118,0.09 0,0.088 0.074,0.117 0.237,0.117 0.667,0 1.57,-0.045 1.702,-0.045 0.135,0 1.024,0.045 1.467,0.045 C 2.28,4.297 2.355,4.268 2.355,4.18 2.355,4.119 2.295,4.09 2.236,4.09 2.132,4.09 2.044,4.076 1.867,4.045 1.466,3.986 1.347,3.721 1.316,3.201 1.29,2.727 1.29,2.313 1.29,0 l 0,-2.074 c 0,-2.133 0.473,-3.051 1.109,-3.658 0.726,-0.682 1.393,-0.815 2.24,-0.815 0.903,0 1.789,0.428 2.323,1.067 0.682,0.843 0.86,2.103 0.86,3.628 l 0,1.852 c 0,2.313 0,2.727 -0.03,3.201 C 7.764,3.705 7.644,3.941 7.155,4.045 7.037,4.076 6.783,4.09 6.651,4.09 c -0.059,0 -0.118,0.029 -0.118,0.09 0,0.088 0.073,0.117 0.237,0.117 0.667,0 1.482,-0.045 1.571,-0.045 0.103,0 0.8,0.045 1.243,0.045 0.162,0 0.237,-0.029 0.237,-0.117 C 9.821,4.119 9.763,4.09 9.702,4.09 9.598,4.09 9.511,4.076 9.334,4.045 8.932,3.957 8.814,3.721 8.785,3.201 8.755,2.727 8.755,2.313 8.755,0 l 0,-1.586 c 0,-1.598 -0.179,-3.377 -1.362,-4.428 -1.067,-0.947 -2.178,-1.095 -3.052,-1.095 -0.505,0 -2,0.058 -3.051,1.05 C 0.562,-5.361 0,-4.324 0,-2.162 L 0,0 Z" /></g><g
           transform="translate(185.3574,2.1172)"
           id="g48"><path
             id="path50"
             style="fill:#ff1e00;fill-opacity:1;fill-rule:nonzero;stroke:none"
             d="m 0,0 c 0.059,-0.533 0.158,-1.361 0.779,-1.57 0.419,-0.133 0.794,-0.133 0.937,-0.133 0.073,0 0.116,-0.014 0.116,-0.074 0,-0.088 -0.13,-0.135 -0.305,-0.135 -0.315,0 -1.874,0.047 -2.406,0.09 -0.333,0.031 -0.405,0.074 -0.405,0.148 0,0.059 0.028,0.088 0.101,0.104 0.074,0.015 0.086,0.267 0.057,0.533 l -0.69,7.644 -0.043,0 -3.534,-7.703 c -0.305,-0.652 -0.348,-0.785 -0.476,-0.785 -0.104,0 -0.173,0.149 -0.447,0.682 -0.376,0.726 -1.618,3.289 -1.69,3.435 -0.13,0.268 -1.744,3.823 -1.902,4.223 l -0.06,0 -0.577,-6.875 c -0.014,-0.236 -0.014,-0.502 -0.014,-0.754 0,-0.223 0.159,-0.416 0.376,-0.459 0.245,-0.058 0.46,-0.074 0.548,-0.074 0.058,0 0.117,-0.029 0.117,-0.074 0,-0.104 -0.089,-0.135 -0.261,-0.135 -0.534,0 -1.226,0.047 -1.341,0.047 -0.131,0 -0.822,-0.047 -1.211,-0.047 -0.144,0 -0.247,0.031 -0.247,0.135 0,0.045 0.072,0.074 0.144,0.074 0.117,0 0.215,0 0.433,0.045 0.477,0.088 0.519,0.666 0.577,1.228 l 1.037,9.66 c 0.017,0.165 0.074,0.266 0.16,0.266 0.087,0 0.145,-0.058 0.217,-0.221 l 4.414,-9.32 4.242,9.305 c 0.055,0.135 0.115,0.236 0.214,0.236 0.103,0 0.146,-0.117 0.175,-0.398 L 0,0 Z" /></g><g
           transform="translate(201.1074,7.1094)"
           id="g52"><path
             id="path54"
             style="fill:#ff1e00;fill-opacity:1;fill-rule:nonzero;stroke:none"
             d="m 0,0 c 0,2.313 0,2.727 -0.03,3.201 -0.031,0.504 -0.15,0.74 -0.639,0.844 -0.118,0.031 -0.369,0.045 -0.501,0.045 -0.06,0 -0.121,0.029 -0.121,0.09 0,0.088 0.074,0.117 0.236,0.117 0.668,0 1.557,-0.045 1.678,-0.045 0.324,0 1.185,0.045 1.865,0.045 1.852,0 2.518,-0.621 2.756,-0.844 0.325,-0.312 0.74,-0.978 0.74,-1.764 0,-2.103 -1.542,-3.525 -3.645,-3.525 -0.071,0 -0.237,0 -0.31,0.014 -0.074,0 -0.164,0.031 -0.164,0.103 0,0.119 0.09,0.133 0.403,0.133 1.434,0 2.56,1.053 2.56,2.416 0,0.488 -0.044,1.483 -0.829,2.281 C 3.213,3.912 2.312,3.854 1.97,3.854 1.717,3.854 1.466,3.822 1.332,3.764 1.243,3.734 1.213,3.631 1.213,3.482 l 0,-6.089 c 0,-1.422 0,-2.592 0.074,-3.215 0.045,-0.428 0.135,-0.754 0.578,-0.813 0.207,-0.031 0.533,-0.06 0.666,-0.06 0.09,0 0.119,-0.045 0.119,-0.088 0,-0.076 -0.074,-0.119 -0.238,-0.119 -0.812,0 -1.746,0.043 -1.822,0.043 -0.043,0 -0.977,-0.043 -1.421,-0.043 -0.162,0 -0.238,0.029 -0.238,0.119 0,0.043 0.031,0.088 0.119,0.088 0.134,0 0.311,0.029 0.444,0.06 0.297,0.059 0.371,0.385 0.432,0.813 C 0,-5.199 0,-4.029 0,-2.607 L 0,0 Z" /></g><g
           transform="translate(220.1719,7.1094)"
           id="g56"><path
             id="path58"
             style="fill:#ff1e00;fill-opacity:1;fill-rule:nonzero;stroke:none"
             d="m 0,0 c 0,2.313 0,2.727 -0.027,3.201 -0.031,0.504 -0.147,0.74 -0.623,0.844 -0.117,0.031 -0.362,0.045 -0.494,0.045 -0.056,0 -0.115,0.029 -0.115,0.09 0,0.088 0.073,0.117 0.232,0.117 0.651,0 1.533,-0.045 1.666,-0.045 0.128,0 0.995,0.045 1.429,0.045 0.161,0 0.233,-0.029 0.233,-0.117 C 2.301,4.119 2.242,4.09 2.186,4.09 2.083,4.09 1.997,4.076 1.823,4.045 1.433,3.986 1.316,3.721 1.287,3.201 1.26,2.727 1.26,2.313 1.26,0 l 0,-2.074 c 0,-2.133 0.463,-3.051 1.084,-3.658 0.71,-0.682 1.359,-0.815 2.185,-0.815 0.882,0 1.75,0.428 2.272,1.067 0.666,0.843 0.838,2.103 0.838,3.628 l 0,1.852 c 0,2.313 0,2.727 -0.03,3.201 C 7.582,3.705 7.467,3.941 6.988,4.045 6.873,4.076 6.626,4.09 6.497,4.09 c -0.06,0 -0.116,0.029 -0.116,0.09 0,0.088 0.073,0.117 0.231,0.117 0.652,0 1.448,-0.045 1.534,-0.045 0.102,0 0.781,0.045 1.214,0.045 0.16,0 0.233,-0.029 0.233,-0.117 C 9.593,4.119 9.535,4.09 9.476,4.09 9.377,4.09 9.288,4.076 9.115,4.045 8.725,3.957 8.609,3.721 8.58,3.201 8.551,2.727 8.551,2.313 8.551,0 l 0,-1.586 c 0,-1.598 -0.174,-3.377 -1.332,-4.428 -1.041,-0.947 -2.125,-1.095 -2.98,-1.095 -0.491,0 -1.954,0.058 -2.979,1.05 C 0.551,-5.361 0,-4.324 0,-2.162 L 0,0 Z" /></g><g
           transform="translate(245.25,5.8203)"
           id="g60"><path
             id="path62"
             style="fill:#ff1e00;fill-opacity:1;fill-rule:nonzero;stroke:none"
             d="m 0,0 c 0,-0.072 0.029,-0.133 0.104,-0.178 0.222,-0.133 0.903,-0.236 1.554,-0.236 0.356,0 0.772,0.045 1.112,0.281 0.519,0.356 0.904,1.156 0.904,2.281 0,1.854 -0.979,2.963 -2.563,2.963 C 0.666,5.111 0.266,5.068 0.117,5.023 0.045,4.994 0,4.936 0,4.846 L 0,0 Z m -1.186,1.291 c 0,2.311 0,2.725 -0.029,3.199 -0.029,0.504 -0.15,0.74 -0.637,0.844 -0.119,0.031 -0.369,0.045 -0.503,0.045 -0.059,0 -0.121,0.029 -0.121,0.088 0,0.09 0.077,0.119 0.24,0.119 0.665,0 1.598,-0.043 1.674,-0.043 0.161,0 1.289,0.043 1.748,0.043 0.932,0 1.924,-0.09 2.71,-0.65 C 4.268,4.668 4.92,3.941 4.92,2.92 4.92,1.822 4.46,0.727 3.125,-0.502 c 1.217,-1.557 2.223,-2.875 3.082,-3.795 0.8,-0.844 1.438,-1.006 1.809,-1.064 0.28,-0.047 0.488,-0.047 0.576,-0.047 0.076,0 0.135,-0.043 0.135,-0.086 0,-0.092 -0.089,-0.119 -0.356,-0.119 l -1.053,0 c -0.83,0 -1.2,0.074 -1.586,0.281 -0.635,0.34 -1.154,1.066 -1.999,2.178 -0.623,0.814 -1.319,1.806 -1.615,2.191 -0.059,0.061 -0.104,0.09 -0.191,0.09 L 0.104,-0.844 C 0.029,-0.844 0,-0.889 0,-0.963 l 0,-0.355 c 0,-1.422 0,-2.592 0.074,-3.215 0.043,-0.43 0.134,-0.754 0.577,-0.813 0.208,-0.031 0.535,-0.062 0.666,-0.062 0.091,0 0.12,-0.043 0.12,-0.086 0,-0.076 -0.076,-0.119 -0.237,-0.119 -0.813,0 -1.747,0.043 -1.823,0.043 -0.015,0 -0.948,-0.043 -1.391,-0.043 -0.163,0 -0.238,0.027 -0.238,0.119 0,0.043 0.031,0.086 0.118,0.086 0.133,0 0.312,0.031 0.445,0.062 0.296,0.059 0.37,0.383 0.429,0.813 0.074,0.623 0.074,1.793 0.074,3.215 l 0,2.609 z" /></g><path
           id="path64"
           style="fill:#ff1e00;fill-opacity:1;fill-rule:nonzero;stroke:none"
           d="m 253.732,65.277 -253.72,0 0,1.168 253.72,0 0,-1.168 z" /><g
           transform="translate(48.2041,94.7656)"
           id="g66"><path
             id="path68"
             style="fill:#ff1e00;fill-opacity:1;fill-rule:nonzero;stroke:none"
             d="M 0,0 C 0.212,0 0.212,0.127 0.167,0.297 L -3.86,11.748 c -0.212,0.635 -0.426,0.635 -0.637,0 L -8.231,0.297 C -8.314,0.084 -8.231,0 -8.102,0 L 0,0 Z m -4.412,16.965 c 0.509,1.4 0.679,1.654 0.932,1.654 0.255,0 0.425,-0.213 0.935,-1.525 0.635,-1.614 7.295,-19.131 9.882,-25.578 1.527,-3.774 2.758,-4.454 3.646,-4.707 0.638,-0.213 1.275,-0.256 1.699,-0.256 0.253,0 0.423,-0.041 0.423,-0.254 0,-0.254 -0.381,-0.342 -0.847,-0.342 -0.637,0 -3.735,0 -6.66,0.088 -0.806,0.041 -1.273,0.041 -1.273,0.297 0,0.17 0.128,0.254 0.299,0.295 0.253,0.086 0.506,0.468 0.253,1.146 L 0.933,-1.783 c -0.085,0.172 -0.169,0.256 -0.382,0.256 l -9.119,0 c -0.214,0 -0.341,-0.127 -0.425,-0.34 l -2.545,-7.508 c -0.382,-1.061 -0.594,-2.078 -0.594,-2.842 0,-0.847 0.891,-1.23 1.612,-1.23 l 0.425,0 c 0.296,0 0.422,-0.086 0.422,-0.254 0,-0.254 -0.254,-0.342 -0.636,-0.342 -1.017,0 -2.84,0.129 -3.306,0.129 -0.467,0 -2.801,-0.129 -4.794,-0.129 -0.551,0 -0.806,0.088 -0.806,0.342 0,0.168 0.171,0.254 0.381,0.254 0.298,0 0.892,0.043 1.229,0.084 1.952,0.256 2.8,1.867 3.565,3.988 l 9.628,26.34 z" /></g><g
           transform="translate(79.1113,85.8984)"
           id="g70"><path
             id="path72"
             style="fill:#ff1e00;fill-opacity:1;fill-rule:nonzero;stroke:none"
             d="m 0,0 c 2.461,5.684 8.146,20.488 9.078,23.543 0.211,0.635 0.384,1.23 0.384,1.611 0,0.34 -0.13,0.764 -0.554,0.975 -0.508,0.17 -1.146,0.17 -1.612,0.17 -0.253,0 -0.467,0.043 -0.467,0.256 0,0.254 0.255,0.338 0.933,0.338 1.7,0 3.647,-0.127 4.158,-0.127 0.254,0 2.079,0.127 3.308,0.127 0.467,0 0.723,-0.084 0.723,-0.297 0,-0.211 -0.172,-0.297 -0.51,-0.297 -0.297,0 -1.231,0 -2.037,-0.51 C 12.853,25.408 12.217,24.687 11.072,21.805 10.607,20.615 8.485,15.525 6.322,10.309 3.734,4.115 1.825,-0.465 0.849,-2.543 c -1.187,-2.545 -1.358,-3.225 -1.783,-3.225 -0.505,0 -0.719,0.594 -1.526,2.631 l -10.392,26 c -0.934,2.375 -1.568,2.842 -3.052,3.266 -0.637,0.17 -1.36,0.17 -1.613,0.17 -0.254,0 -0.34,0.127 -0.34,0.297 0,0.254 0.424,0.297 1.105,0.297 2.035,0 4.453,-0.127 4.963,-0.127 0.421,0 2.33,0.127 3.943,0.127 0.763,0 1.145,-0.084 1.145,-0.297 0,-0.211 -0.126,-0.297 -0.423,-0.297 -0.468,0 -1.231,-0.041 -1.612,-0.211 -0.467,-0.213 -0.552,-0.553 -0.552,-0.85 0,-0.551 0.51,-1.865 1.145,-3.521 L 0,0 Z" /></g><g
           transform="translate(111.0625,93.0254)"
           id="g74"><path
             id="path76"
             style="fill:#ff1e00;fill-opacity:1;fill-rule:nonzero;stroke:none"
             d="m 0,0 c 0,-4.072 0,-7.422 0.214,-9.205 0.126,-1.229 0.382,-2.162 1.653,-2.332 0.593,-0.086 1.527,-0.17 1.908,-0.17 0.256,0 0.341,-0.127 0.341,-0.254 0,-0.213 -0.214,-0.34 -0.68,-0.34 -2.331,0 -5.004,0.127 -5.216,0.127 -0.213,0 -2.884,-0.127 -4.158,-0.127 -0.467,0 -0.677,0.086 -0.677,0.34 0,0.127 0.085,0.254 0.339,0.254 0.38,0 0.888,0.084 1.272,0.17 0.85,0.17 1.06,1.103 1.232,2.332 0.21,1.783 0.21,5.133 0.21,9.205 l 0,7.467 c 0,6.615 0,7.803 -0.085,9.16 -0.084,1.441 -0.507,2.164 -1.443,2.375 -0.465,0.129 -1.017,0.17 -1.315,0.17 -0.169,0 -0.337,0.086 -0.337,0.256 0,0.254 0.212,0.338 0.677,0.338 1.401,0 4.072,-0.127 4.285,-0.127 0.212,0 2.885,0.127 4.156,0.127 0.467,0 0.681,-0.084 0.681,-0.338 0,-0.17 -0.171,-0.256 -0.341,-0.256 -0.297,0 -0.552,-0.041 -1.06,-0.127 C 0.51,18.834 0.171,18.111 0.084,16.627 0,15.27 0,14.082 0,7.467 L 0,0 Z" /></g><g
           transform="translate(135.8467,92.9414)"
           id="g78"><path
             id="path80"
             style="fill:#ff1e00;fill-opacity:1;fill-rule:nonzero;stroke:none"
             d="m 0,0 c 0,-6.234 0.169,-8.949 0.934,-9.713 0.678,-0.68 5.246,-0.976 8.555,-0.976 2.246,0 4.115,0.043 5.133,1.273 0.551,0.678 0.975,1.738 1.102,2.545 0.043,0.338 0.129,0.551 0.381,0.551 0.213,0 0.256,-0.17 0.256,-0.637 0,-0.465 -0.297,-3.012 -0.637,-4.242 -0.296,-0.975 -0.425,-1.145 -2.672,-1.145 -3.053,0 -8.727,0.084 -10.506,0.127 -1.784,0.086 -3.097,0.127 -4.327,0.127 -0.17,0 -0.893,-0.041 -1.739,-0.041 -0.849,-0.043 -1.783,-0.086 -2.416,-0.086 -0.469,0 -0.683,0.086 -0.683,0.34 0,0.127 0.088,0.254 0.341,0.254 0.382,0 0.891,0.084 1.274,0.172 0.846,0.168 1.06,1.101 1.229,2.332 0.212,1.781 0.212,5.133 0.212,9.203 l 0,7.467 c 0,6.615 0,7.803 -0.086,9.16 -0.083,1.441 -0.422,2.121 -1.823,2.418 -0.34,0.084 -1.059,0.127 -1.441,0.127 -0.171,0 -0.341,0.086 -0.341,0.256 0,0.254 0.214,0.338 0.678,0.338 1.909,0 4.583,-0.127 4.795,-0.127 0.213,0 3.308,0.127 4.58,0.127 0.466,0 0.68,-0.084 0.68,-0.338 0,-0.17 -0.169,-0.256 -0.341,-0.256 -0.295,0 -0.891,-0.043 -1.4,-0.127 C 0.51,18.918 0.169,18.195 0.085,16.711 0,15.354 0,14.166 0,7.551 L 0,0 Z" /></g><g
           transform="translate(169.6104,93.0254)"
           id="g82"><path
             id="path84"
             style="fill:#ff1e00;fill-opacity:1;fill-rule:nonzero;stroke:none"
             d="m 0,0 c 0,-4.072 0,-7.422 0.214,-9.205 0.127,-1.229 0.38,-2.162 1.653,-2.332 0.594,-0.086 1.526,-0.17 1.909,-0.17 0.254,0 0.338,-0.127 0.338,-0.254 0,-0.213 -0.211,-0.34 -0.678,-0.34 -2.334,0 -5.004,0.127 -5.214,0.127 -0.215,0 -2.886,-0.127 -4.159,-0.127 -0.466,0 -0.68,0.086 -0.68,0.34 0,0.127 0.086,0.254 0.34,0.254 0.382,0 0.89,0.084 1.273,0.17 0.849,0.17 1.061,1.103 1.231,2.332 0.211,1.783 0.211,5.133 0.211,9.205 l 0,7.467 c 0,6.615 0,7.803 -0.084,9.16 -0.084,1.441 -0.509,2.164 -1.442,2.375 -0.468,0.129 -1.019,0.17 -1.315,0.17 -0.17,0 -0.339,0.086 -0.339,0.256 0,0.254 0.211,0.338 0.678,0.338 1.4,0 4.071,-0.127 4.286,-0.127 0.21,0 2.88,0.127 4.154,0.127 0.467,0 0.68,-0.084 0.68,-0.338 0,-0.17 -0.17,-0.256 -0.339,-0.256 -0.298,0 -0.552,-0.041 -1.061,-0.127 C 0.51,18.834 0.169,18.111 0.086,16.627 0,15.27 0,14.082 0,7.467 L 0,0 Z" /></g><g
           transform="translate(199.5713,81.7441)"
           id="g86"><path
             id="path88"
             style="fill:#ff1e00;fill-opacity:1;fill-rule:nonzero;stroke:none"
             d="m 0,0 c 3.649,0 11.183,2.205 11.183,14.547 0,10.182 -5.915,15.652 -12.317,15.652 -6.767,0 -11.832,-4.666 -11.832,-13.955 C -12.966,6.359 -7.292,0 0,0 m -0.852,31.641 c 9.119,0 15.925,-6.024 15.925,-15.907 0,-9.5 -6.401,-17.347 -16.166,-17.347 -11.102,0 -15.721,9.035 -15.721,16.67 0,6.871 4.78,16.584 15.962,16.584" /></g><g
           transform="translate(227.752,86.4941)"
           id="g90"><path
             id="path92"
             style="fill:#ff1e00;fill-opacity:1;fill-rule:nonzero;stroke:none"
             d="m 0,0 c 0.084,-3.479 0.508,-4.582 1.654,-4.92 0.805,-0.213 1.739,-0.256 2.119,-0.256 0.213,0 0.341,-0.084 0.341,-0.254 0,-0.254 -0.256,-0.34 -0.764,-0.34 -2.418,0 -4.114,0.127 -4.496,0.127 -0.381,0 -2.163,-0.127 -4.071,-0.127 -0.425,0 -0.678,0.043 -0.678,0.34 0,0.17 0.125,0.254 0.336,0.254 0.342,0 1.106,0.043 1.743,0.256 1.059,0.295 1.271,1.525 1.271,5.387 l 0.043,24.303 c 0,1.656 0.126,2.121 0.467,2.121 0.338,0 1.058,-0.932 1.484,-1.356 0.635,-0.723 5.172,-6.998 11.703,-13.996 4.2,-4.496 8.512,-10.225 9.87,-11.625 l -0.467,21.549 c -0.042,2.756 -0.34,3.689 -1.653,4.029 -0.764,0.168 -1.74,0.211 -2.08,0.211 -0.299,0 -0.338,0.127 -0.338,0.297 0,0.254 0.338,0.297 0.847,0.297 1.908,0 3.944,-0.127 4.411,-0.127 0.467,0 1.867,0.127 3.606,0.127 0.466,0 0.763,-0.043 0.763,-0.297 0,-0.17 -0.169,-0.297 -0.466,-0.297 -0.211,0 -0.509,0 -1.018,-0.127 -1.4,-0.297 -1.569,-1.23 -1.569,-3.775 L 22.974,-3.055 c 0,-2.799 -0.085,-3.011 -0.383,-3.011 -0.34,0 -0.849,0.466 -3.099,2.714 C 19.028,-2.928 13.658,3.561 9.334,8.551 4.266,14.398 0.806,18.791 -0.551,20.316 L 0,0 Z" /></g><g
           transform="translate(3.7686,100.2461)"
           id="g94"><path
             id="path96"
             style="fill:#ff1e00;fill-opacity:1;fill-rule:nonzero;stroke:none"
             d="m 0,0 c 0,6.754 0,7.967 -0.089,9.352 -0.086,1.472 -0.434,2.166 -1.86,2.468 -0.347,0.086 -1.083,0.131 -1.474,0.131 -0.172,0 -0.346,0.084 -0.346,0.258 0,0.26 0.217,0.348 0.694,0.348 1.949,0 4.845,0.015 5.193,0.015 0.951,0 6.755,-0.015 8.745,-0.015 8.126,0 9.765,-1.475 10.916,-2.28 C 23.266,9.24 24.071,7.598 24.138,5.625 24.386,-1.754 12.689,-5.203 6.542,-5.203 c -0.217,0 -0.693,0 -0.909,0.043 -0.217,0 -0.476,0.086 -0.476,0.301 0,0.347 0.456,0.492 1.363,0.56 4.788,0.354 11.883,2.531 13.711,6.139 0.84,1.666 0.69,4.529 -1.429,6.515 C 15.941,11.039 9.121,10.49 5.758,10.49 5.02,10.49 4.284,10.406 3.895,10.23 3.637,10.145 3.548,9.842 3.548,9.41 l 0,-17.029 c 0,-4.158 0,-7.576 0.218,-9.395 0.129,-1.257 0.39,-1.591 1.688,-1.765 0.607,-0.086 1.56,-0.172 1.948,-0.172 0.26,0 0.347,-0.131 0.347,-0.262 0,-0.217 -0.219,-0.346 -0.692,-0.346 -2.382,0 -5.095,0.063 -5.313,0.063 -0.13,0 -2.87,-0.063 -4.169,-0.063 -0.477,0 -0.693,0.086 -0.693,0.346 0,0.131 0.086,0.262 0.347,0.262 0.389,0 0.909,0.086 1.298,0.172 0.866,0.174 1.082,0.508 1.255,1.765 C 0,-15.195 0,-11.777 0,-7.619 L 0,0 Z" /></g><g
           transform="translate(35.4922,29.9219)"
           id="g98"><path
             id="path100"
             style="fill:#ff1e00;fill-opacity:1;fill-rule:nonzero;stroke:none"
             d="m 0,0 c -0.588,0.205 -0.698,0.352 -0.698,0.994 0,1.61 0.147,3.361 0.182,3.83 0.036,0.44 0.147,0.762 0.443,0.762 0.328,0 0.365,-0.264 0.365,-0.498 0,-0.381 0.147,-0.994 0.332,-1.492 0.806,-2.162 2.972,-2.953 5.247,-2.953 3.305,0 4.919,1.785 4.919,3.334 0,1.433 -0.462,2.757 -3.51,4.658 L 5.594,9.688 c -4.039,2.515 -5.522,4.583 -5.522,6.951 0,3.216 2.412,5.818 8.481,5.527 2.382,-0.115 3.924,-0.293 4.881,-0.496 0.33,-0.061 0.513,-0.149 0.513,-0.352 0,-0.381 -0.148,-1.228 -0.148,-3.509 0,-0.643 -0.11,-0.877 -0.403,-0.877 -0.256,0 -0.368,0.175 -0.368,0.525 0,0.264 -0.181,1.17 -0.953,1.932 -0.55,0.554 -1.614,1.431 -4.001,1.431 -2.716,0 -4.367,-1.258 -4.367,-3.011 0,-1.346 0.789,-2.672 3.835,-4.514 L 8.569,12.682 C 13.012,10.02 14.475,8.371 14.475,5.594 14.475,3.898 13.837,1.812 11.193,0.437 9.359,-0.496 7.304,-0.76 5.358,-0.76 3.229,-0.76 1.576,-0.557 0,0" /></g><g
           transform="translate(68.8252,43.0293)"
           id="g102"><path
             id="path104"
             style="fill:#ff1e00;fill-opacity:1;fill-rule:nonzero;stroke:none"
             d="m 0,0 c 0,4.445 0,5.266 -0.057,6.201 -0.06,0.994 -0.127,1.629 -1.09,1.834 -0.235,0.059 -0.731,0.088 -1.142,0.088 -0.321,0 -0.496,0.059 -0.496,0.264 0,0.203 0.204,0.261 0.642,0.261 1.551,0 3.393,-0.085 4.271,-0.085 0.7,0 2.544,0.085 3.598,0.085 0.437,0 0.64,-0.058 0.64,-0.261 C 6.366,8.182 6.193,8.123 5.899,8.123 5.579,8.123 5.402,8.094 5.051,8.035 4.262,7.889 4.028,7.393 3.97,6.367 3.911,5.434 3.911,4.615 3.911,0.168 l 0,-4.094 c 0,-4.24 0.849,-6.023 2.282,-7.193 1.314,-1.082 3.987,-0.789 5.157,0.381 1.608,1.607 1.694,4.24 1.694,7.252 l 0,3.654 c 0,4.447 0,5.266 -0.057,6.199 -0.059,0.994 -0.293,1.463 -1.259,1.668 -0.235,0.059 -0.73,0.088 -1.052,0.088 -0.321,0 -0.496,0.059 -0.496,0.264 0,0.203 0.204,0.261 0.612,0.261 1.492,0 3.336,-0.085 3.362,-0.085 0.352,0 2.196,0.085 3.335,0.085 0.409,0 0.614,-0.058 0.614,-0.261 0,-0.205 -0.175,-0.264 -0.525,-0.264 -0.322,0 -0.499,-0.029 -0.848,-0.088 C 15.94,7.889 15.706,7.393 15.648,6.367 15.589,5.434 15.589,4.615 15.589,0.168 l 0,-3.129 c 0,-3.244 -0.322,-6.695 -2.778,-8.801 -2.076,-1.785 -7.092,-1.886 -9.449,-0.236 C 1.412,-10.633 0,-8.508 0,-4.268 L 0,0 Z" /></g><g
           transform="translate(107.9414,42.789)"
           id="g106"><path
             id="path108"
             style="fill:#ff1e00;fill-opacity:1;fill-rule:nonzero;stroke:none"
             d="m 0,0 c 0,4.443 0,5.264 -0.058,6.199 -0.059,0.994 -0.351,1.492 -0.993,1.637 -0.323,0.088 -0.703,0.117 -1.053,0.117 -0.292,0 -0.467,0.059 -0.467,0.293 0,0.174 0.233,0.233 0.7,0.233 1.112,0 2.954,-0.086 3.804,-0.086 0.731,0 2.455,0.086 3.566,0.086 0.38,0 0.614,-0.059 0.614,-0.233 C 6.113,8.012 5.936,7.953 5.645,7.953 5.352,7.953 5.118,7.924 4.767,7.865 3.978,7.719 4.02,7.301 3.964,6.277 3.904,5.342 3.822,-10.182 3.938,-11.441 c 0.089,-0.789 0.316,-1.444 1.196,-1.561 0.408,-0.057 0.832,-0.1 1.27,-0.1 0.325,0 0.468,-0.087 0.468,-0.234 0,-0.203 -0.234,-0.293 -0.556,-0.293 -1.928,0 -3.77,0.09 -4.56,0.09 -0.673,0 -2.515,-0.09 -3.685,-0.09 -0.381,0 -0.585,0.09 -0.585,0.293 0,0.147 0.118,0.234 0.467,0.234 0.438,0 0.789,0.059 1.055,0.118 0.583,0.115 0.758,0.613 0.847,1.461 C 0,-10.295 0,-7.984 0,-5.146 L 0,0 Z" /></g><g
           transform="translate(140.3535,49.6308)"
           id="g110"><path
             id="path112"
             style="fill:#ff1e00;fill-opacity:1;fill-rule:nonzero;stroke:none"
             d="m 0,0 -2.963,-0.117 c -1.694,-0.057 -2.396,-0.205 -2.835,-0.848 -0.294,-0.437 -0.44,-0.789 -0.498,-1.023 -0.058,-0.233 -0.147,-0.352 -0.321,-0.352 -0.205,0 -0.264,0.147 -0.264,0.469 0,0.469 0.556,3.129 0.614,3.363 0.088,0.379 0.175,0.555 0.352,0.555 0.233,0 0.525,-0.291 1.258,-0.35 0.848,-0.088 1.958,-0.146 2.924,-0.146 l 7.889,0 c 0.936,0 2.228,0.086 2.667,0.146 0.438,0.086 0.672,0.147 0.789,0.147 0.206,0 0.234,-0.176 0.234,-0.615 0,-0.616 -0.086,-2.631 -0.086,-3.393 -0.031,-0.293 -0.088,-0.467 -0.265,-0.467 -0.234,0 -0.291,0.145 -0.321,0.584 l -0.029,0.322 c -0.058,0.76 -1.498,1.579 -4.101,1.637 L 3.913,0 l 0,-11.99 c 0,-2.69 0,-5 0.148,-6.258 0.086,-0.818 0.099,-1.404 0.973,-1.522 0.412,-0.056 0.963,-0.173 1.401,-0.173 0.321,0 0.467,-0.088 0.467,-0.235 0,-0.205 -0.234,-0.291 -0.555,-0.291 -1.931,0 -3.773,0.086 -4.591,0.086 -0.673,0 -2.515,-0.086 -3.685,-0.086 -0.38,0 -0.585,0.086 -0.585,0.291 0,0.147 0.118,0.235 0.468,0.235 0.439,0 0.789,0.058 1.054,0.117 0.584,0.117 0.759,0.76 0.846,1.609 C 0,-16.99 0,-14.68 0,-11.99 L 0,0 Z" /></g><g
           transform="translate(172.5176,42.8769)"
           id="g114"><path
             id="path116"
             style="fill:#ff1e00;fill-opacity:1;fill-rule:nonzero;stroke:none"
             d="m 0,0 c 0,4.443 0,5.264 -0.059,6.199 -0.057,0.994 -0.293,1.461 -1.257,1.666 -0.235,0.059 -0.732,0.09 -1.14,0.09 -0.324,0 -0.498,0.057 -0.498,0.262 0,0.205 0.204,0.263 0.641,0.263 0.793,0 1.638,-0.031 2.371,-0.031 0.758,-0.027 1.433,-0.056 1.84,-0.056 0.938,0 8.291,0 8.848,0.029 0.556,0.058 1.023,0.117 1.257,0.176 0.146,0.027 0.321,0.117 0.468,0.117 0.147,0 0.175,-0.117 0.175,-0.266 0,-0.203 -0.145,-0.554 -0.234,-1.9 -0.028,-0.291 -0.088,-1.58 -0.145,-1.93 -0.03,-0.144 -0.089,-0.32 -0.292,-0.32 -0.206,0 -0.265,0.144 -0.265,0.41 0,0.203 -0.028,0.701 -0.175,1.053 C 11.331,6.287 11.038,6.637 9.576,6.812 9.079,6.871 4.682,6.93 4.097,6.93 3.952,6.93 3.894,6.842 3.894,6.637 l 0,-7.397 c 0,-0.207 0.028,-0.322 0.203,-0.322 0.644,0 3.798,0 4.47,0.059 0.702,0.056 1.14,0.144 1.404,0.437 0.205,0.234 0.321,0.381 0.468,0.381 0.118,0 0.205,-0.059 0.205,-0.234 0,-0.176 -0.117,-0.643 -0.235,-2.135 -0.029,-0.584 -0.117,-1.754 -0.117,-1.959 0,-0.235 0,-0.557 -0.263,-0.557 -0.205,0 -0.261,0.117 -0.261,0.264 -0.031,0.293 -0.031,0.674 -0.118,1.053 -0.146,0.584 -0.556,1.023 -1.637,1.14 -0.558,0.059 -3.243,0.051 -3.945,0.051 -0.147,0 -0.175,-0.117 -0.175,-0.293 0,0 -0.037,-5.979 -0.007,-6.826 0.06,-2.018 0.974,-2.436 3.956,-2.436 0.761,0 1.988,0 2.75,0.352 0.76,0.349 1.11,0.965 1.314,2.164 0.06,0.32 0.117,0.437 0.324,0.437 0.234,0 0.234,-0.234 0.234,-0.525 0,-0.672 -0.234,-2.662 -0.382,-3.246 -0.203,-0.762 -0.466,-0.762 -1.579,-0.762 -2.192,0 -4.448,0.059 -5.708,0.09 -1.257,0.057 -2.164,0.086 -3.043,0.086 -0.319,0 -0.963,0 -1.665,-0.029 -0.672,0 -1.433,-0.057 -2.018,-0.057 -0.382,0 -0.586,0.086 -0.586,0.291 0,0.147 0.118,0.234 0.469,0.234 0.438,0 0.789,0.059 1.053,0.118 0.585,0.117 0.73,0.759 0.849,1.607 C 0,-10.148 0,-7.838 0,-5.146 L 0,0 Z" /></g><g
           transform="translate(204.9766,29.9219)"
           id="g118"><path
             id="path120"
             style="fill:#ff1e00;fill-opacity:1;fill-rule:nonzero;stroke:none"
             d="m 0,0 c -0.586,0.205 -0.696,0.352 -0.696,0.994 0,1.61 0.145,3.361 0.181,3.83 0.038,0.44 0.148,0.762 0.444,0.762 0.329,0 0.365,-0.264 0.365,-0.498 0,-0.381 0.147,-0.994 0.331,-1.492 0.807,-2.162 2.971,-2.953 5.249,-2.953 3.304,0 4.918,1.785 4.918,3.334 0,1.433 -0.462,2.757 -3.509,4.658 L 5.596,9.688 c -4.039,2.515 -5.524,4.583 -5.524,6.951 0,3.216 2.414,5.818 8.483,5.527 2.381,-0.115 3.925,-0.293 4.879,-0.496 0.332,-0.061 0.515,-0.149 0.515,-0.352 0,-0.381 -0.146,-1.228 -0.146,-3.509 0,-0.643 -0.112,-0.877 -0.403,-0.877 -0.258,0 -0.369,0.175 -0.369,0.525 0,0.264 -0.181,1.17 -0.953,1.932 -0.551,0.554 -1.616,1.431 -4.002,1.431 -2.716,0 -4.367,-1.258 -4.367,-3.011 0,-1.346 0.789,-2.672 3.836,-4.514 L 8.571,12.682 C 13.014,10.02 14.477,8.371 14.477,5.594 14.477,3.898 13.84,1.812 11.197,0.437 9.361,-0.496 7.307,-0.76 5.36,-0.76 3.23,-0.76 1.58,-0.557 0,0" /></g></g></g></g></svg>